/* XPM */
static char * bullet_xpm[] = {
"4 7 2 1",
" 	c None",
".	c #DDDDDD",
".   ",
"..  ",
" .. ",
"  ..",
" .. ",
"..  ",
".   "};
