/* XPM */
static char * stuck_xpm[] = {
"13 13 18 1",
" 	c None",
".	c #3A3A3A",
"+	c #3A3939",
"@	c #393939",
"#	c #393838",
"$	c #383737",
"%	c #373636",
"&	c #DFDBD2",
"*	c #363535",
"=	c #353535",
"-	c #373535",
";	c #353434",
">	c #343434",
",	c #333232",
"'	c #323232",
")	c #313030",
"!	c #303030",
"~	c #2F2F2F",
".............",
"+++++++++++++",
"@@@#@@##@@##@",
"$$$$$$$$$$$$$",
"%%%%%&&&%%%%%",
"**=*&&&&&**-=",
";;;;&&&&&;;;;",
">>>>&&&&&>>>>",
",,,,,&&&,,,,,",
"'''''''''''''",
")))))))))))))",
"!!!!!!!!!!!!!",
"~~~~~~~~~~~~~"};
